<?xml version="1.0" encoding="utf-8"?>
<!-- Generator: Adobe Illustrator 25.2.0, SVG Export Plug-In . SVG Version: 6.00 Build 0)  -->
<svg version="1.1" id="Layer_1" xmlns="http://www.w3.org/2000/svg" xmlns:xlink="http://www.w3.org/1999/xlink" x="0px" y="0px"
	 viewBox="0 0 900 300" style="enable-background:new 0 0 900 300;" xml:space="preserve">
<style type="text/css">
	.st0{fill:#4664AF;}
	.st1{fill:#1E1E1E;}
</style>
<g>
	<g>
		<rect x="53.4" y="226.1" class="st0" width="58.7" height="29.4"/>
		<rect x="170.9" y="226.1" class="st0" width="146.8" height="29.4"/>
		<rect x="376.4" y="226.1" class="st0" width="190.8" height="29.4"/>
		<rect x="626" y="226.1" class="st0" width="220.2" height="29.4"/>
	</g>
	<g>
		<polygon class="st1" points="446.1,49.6 336,49.6 336,76.5 376.4,76.5 376.4,181.7 405.8,181.7 405.8,76.5 446.1,76.5 		"/>
		<polygon class="st1" points="144.6,49.6 82.8,135.2 82.8,49.6 53.4,49.6 53.4,181.7 79.8,181.7 141.5,96 141.5,181.7 170.9,181.7 
			170.9,49.6 		"/>
		<polygon class="st1" points="567.2,76.5 567.2,49.6 464.5,49.6 464.5,181.7 567.2,181.7 567.2,154.8 493.8,154.8 493.8,128.5 
			564.8,128.5 564.8,102.8 493.8,102.8 493.8,76.5 		"/>
		<polygon class="st1" points="288.3,49.6 288.3,100.3 230.8,100.3 230.8,49.6 201.5,49.6 201.5,181.7 230.8,181.7 230.8,128.5 
			288.3,128.5 288.3,181.7 317.7,181.7 317.7,49.6 		"/>
		<path class="st1" d="M777.7,45.9c-39.8,0-70.3,31.2-70.3,69.7c0,38.5,30.6,69.7,70.3,69.7s70.3-31.2,70.3-69.7
			C848,77.1,817.4,45.9,777.7,45.9z M777.7,157.2c-26.1,0-41-19.3-41-41.6c0-22.3,14.9-41.6,41-41.6c26.1,0,41,19.3,41,41.6
			C818.6,137.9,803.8,157.2,777.7,157.2z"/>
	</g>
	<polygon class="st1" points="711,49.6 675.9,49.6 637.7,101.6 624.1,101.6 624.1,49.6 594.8,49.6 594.8,181.8 624.1,181.8 
		624.1,129.9 637.7,129.9 675.9,181.8 711,181.8 661.4,115.7 	"/>
</g>
</svg>
